<svg width="120" height="120" viewBox="0 0 120 120" xmlns="http://www.w3.org/2000/svg">
  <rect x="28" y="58" width="64" height="52" fill="#87ceeb" stroke="#000" stroke-width="1"/>
  <rect x="30" y="60" width="60" height="48" fill="#87ceeb"/>
  <rect x="32" y="62" width="56" height="44" fill="#a8d8f0"/>
  <rect x="34" y="64" width="52" height="40" fill="#b8e0f5"/>
  <rect x="22" y="12" width="76" height="64" fill="#87ceeb" stroke="#000" stroke-width="1"/>
  <rect x="24" y="14" width="72" height="60" fill="#87ceeb"/>
  <rect x="26" y="16" width="68" height="56" fill="#a8d8f0"/>
  <rect x="28" y="18" width="64" height="52" fill="#b8e0f5"/>
  <rect x="18" y="8" width="14" height="22" fill="#87ceeb" stroke="#000" stroke-width="1"/>
  <rect x="88" y="8" width="14" height="22" fill="#87ceeb" stroke="#000" stroke-width="1"/>
  <rect x="20" y="10" width="10" height="16" fill="#a8d8f0"/>
  <rect x="90" y="10" width="10" height="16" fill="#a8d8f0"/>
  <rect x="22" y="12" width="6" height="10" fill="#000"/>
  <rect x="92" y="12" width="6" height="10" fill="#000"/>
  <rect x="23" y="13" width="4" height="2" fill="#4a4a4a"/>
  <rect x="93" y="13" width="4" height="2" fill="#4a4a4a"/>
  <rect x="30" y="4" width="60" height="18" fill="#1e293b" stroke="#000" stroke-width="1"/>
  <rect x="32" y="6" width="56" height="14" fill="#334155"/>
  <rect x="55" y="0" width="10" height="12" fill="#1e293b" stroke="#000" stroke-width="1"/>
  <circle cx="60" cy="2" r="2" fill="#eab308"/>
  <rect x="38" y="32" width="22" height="22" fill="#fff" stroke="#000" stroke-width="1"/>
  <rect x="60" y="32" width="22" height="22" fill="#fff" stroke="#000" stroke-width="1"/>
  <rect x="44" y="38" width="10" height="10" fill="#000"/>
  <rect x="66" y="38" width="10" height="10" fill="#000"/>
  <rect x="46" y="40" width="4" height="4" fill="#fff"/>
  <rect x="68" y="40" width="4" height="4" fill="#fff"/>
  <rect x="47" y="41" width="2" height="2" fill="#e0e0e0"/>
  <rect x="69" y="41" width="2" height="2" fill="#e0e0e0"/>
  <path d="M 48 42 Q 50 40 52 42" stroke="#6366f1" stroke-width="2" fill="none"/>
  <path d="M 66 42 Q 68 40 70 42" stroke="#6366f1" stroke-width="2" fill="none"/>
  <rect x="40" y="30" width="18" height="3" fill="#6b9bc4"/>
  <rect x="62" y="30" width="18" height="3" fill="#6b9bc4"/>
  <rect x="40" y="56" width="40" height="22" fill="#d4a574" stroke="#000" stroke-width="1"/>
  <rect x="42" y="58" width="36" height="18" fill="#e6c99a"/>
  <rect x="44" y="60" width="32" height="14" fill="#f0d4b0"/>
  <rect x="56" y="60" width="8" height="6" fill="#000"/>
  <rect x="58" y="62" width="4" height="2" fill="#4a4a4a"/>
  <rect x="57" y="63" width="2" height="2" fill="#2a2a2a"/>
  <rect x="61" y="63" width="2" height="2" fill="#2a2a2a"/>
  <rect x="48" y="66" width="24" height="10" fill="#fff" stroke="#000" stroke-width="1"/>
  <rect x="50" y="68" width="8" height="6" fill="#fff"/>
  <rect x="58" y="68" width="8" height="6" fill="#fff"/>
  <line x1="58" y1="68" x2="58" y2="74" stroke="#000" stroke-width="1"/>
  <rect x="52" y="70" width="12" height="4" fill="#ff6b6b"/>
  <rect x="12" y="68" width="14" height="22" fill="#d4a574" stroke="#000" stroke-width="1"/>
  <rect x="94" y="68" width="14" height="22" fill="#d4a574" stroke="#000" stroke-width="1"/>
  <rect x="14" y="70" width="10" height="18" fill="#e6c99a"/>
  <rect x="96" y="70" width="10" height="18" fill="#e6c99a"/>
  <line x1="8" y1="85" x2="26" y2="85" stroke="#dc2626" stroke-width="3" stroke-dasharray="4,4"/>
  <line x1="94" y1="85" x2="112" y2="85" stroke="#dc2626" stroke-width="3" stroke-dasharray="4,4"/>
  <circle cx="8" cy="85" r="3" fill="#dc2626"/>
  <circle cx="112" cy="85" r="3" fill="#dc2626"/>
  <rect x="44" y="74" width="34" height="28" fill="none" stroke="#6366f1" stroke-width="1" stroke-dasharray="2,2"/>
  <line x1="52" y1="76" x2="52" y2="100" stroke="#6366f1" stroke-width="1" stroke-dasharray="2,2"/>
  <line x1="70" y1="76" x2="70" y2="100" stroke="#6366f1" stroke-width="1" stroke-dasharray="2,2"/>
  <rect x="13" y="84" width="4" height="5" fill="#000"/>
  <rect x="18" y="86" width="4" height="5" fill="#000"/>
  <rect x="23" y="84" width="4" height="5" fill="#000"/>
  <rect x="95" y="84" width="4" height="5" fill="#000"/>
  <rect x="100" y="86" width="4" height="5" fill="#000"/>
  <rect x="105" y="84" width="4" height="5" fill="#000"/>
  <rect x="30" y="64" width="56" height="2" fill="#6b9bc4" opacity="0.3"/>
  <rect x="26" y="18" width="64" height="2" fill="#6b9bc4" opacity="0.3"/>
  <rect x="50" y="50" width="2" height="2" fill="#4a4a4a" opacity="0.5"/>
  <rect x="68" y="50" width="2" height="2" fill="#4a4a4a" opacity="0.5"/>
</svg>
