<?xml version="1.0" encoding="UTF-8"?>
<!DOCTYPE svg PUBLIC "-//W3C//DTD SVG 1.1//EN" "http://www.w3.org/Graphics/SVG/1.1/DTD/svg11.dtd">
<svg xmlns="http://www.w3.org/2000/svg" version="1.1" width="618px" height="618px" style="shape-rendering:geometricPrecision; text-rendering:geometricPrecision; image-rendering:optimizeQuality; fill-rule:evenodd; clip-rule:evenodd" xmlns:xlink="http://www.w3.org/1999/xlink">
<g><path style="opacity:0.993" fill="#010101" d="M 283.5,-0.5 C 300.167,-0.5 316.833,-0.5 333.5,-0.5C 431.196,9.91098 508.363,54.911 565,134.5C 594.994,179.81 612.494,229.477 617.5,283.5C 617.5,300.167 617.5,316.833 617.5,333.5C 607.089,431.196 562.089,508.363 482.5,565C 437.19,594.994 387.523,612.494 333.5,617.5C 316.833,617.5 300.167,617.5 283.5,617.5C 185.804,607.089 108.637,562.089 52,482.5C 22.0056,437.19 4.50565,387.523 -0.5,333.5C -0.5,316.833 -0.5,300.167 -0.5,283.5C 9.91098,185.804 54.911,108.637 134.5,52C 179.81,22.0056 229.477,4.50565 283.5,-0.5 Z"/></g>
<g><path style="opacity:1" fill="#fcfbf9" d="M 292.5,8.5 C 362.457,6.88235 426.124,25.7157 483.5,65C 489.458,69.289 495.124,73.9557 500.5,79C 462.456,85.3609 428.789,100.861 399.5,125.5C 339.11,97.5532 278.776,97.5532 218.5,125.5C 189.858,101.214 156.858,86.0471 119.5,80C 118.044,79.5774 117.544,78.7441 118,77.5C 168.845,36.1593 227.011,13.1593 292.5,8.5 Z"/></g>
<g><path style="opacity:1" fill="#faf9f8" d="M 95.5,103.5 C 126.89,104.353 155.556,113.52 181.5,131C 185.356,134.1 189.023,137.433 192.5,141C 184.757,147.287 176.924,153.454 169,159.5C 154.826,149.168 138.993,142.835 121.5,140.5C 121.441,158.648 124.775,176.148 131.5,193C 126.035,199.968 120.369,206.801 114.5,213.5C 113.833,214.833 113.167,214.833 112.5,213.5C 97.2251,182.959 90.7251,150.626 93,116.5C 93.7912,112.113 94.6246,107.779 95.5,103.5 Z"/></g>
<g><path style="opacity:1" fill="#f9f9f8" d="M 510.5,103.5 C 514.5,103.5 518.5,103.5 522.5,103.5C 528.356,142.007 522.523,178.673 505,213.5C 504,214.833 503,214.833 502,213.5C 496.486,206.656 490.986,199.822 485.5,193C 492.224,176.157 495.557,158.657 495.5,140.5C 478.046,142.811 462.212,149.145 448,159.5C 440.454,152.952 432.621,146.785 424.5,141C 449.176,119.277 477.842,106.777 510.5,103.5 Z"/></g>
<g><path style="opacity:1" fill="#fbfaf9" d="M 296.5,308.5 C 296.5,321.833 296.5,335.167 296.5,348.5C 274.277,359.332 268.444,375.998 279,398.5C 284.291,405.552 291.124,410.219 299.5,412.5C 299.666,418.176 299.499,423.843 299,429.5C 295.501,436.999 289.667,439.833 281.5,438C 278.438,436.939 275.938,435.106 274,432.5C 272.291,429.582 270.458,426.748 268.5,424C 258.951,420.874 254.785,424.374 256,434.5C 268.589,458.37 285.922,462.703 308,447.5C 325.371,460.661 341.371,458.995 356,442.5C 358.641,438.884 360.474,434.884 361.5,430.5C 359.895,424.048 355.895,421.548 349.5,423C 346.623,427.255 343.623,431.422 340.5,435.5C 332.013,440.509 324.847,439.176 319,431.5C 317.623,424.924 317.123,418.257 317.5,411.5C 333.735,407.051 342.402,396.384 343.5,379.5C 341.927,365.262 334.594,355.262 321.5,349.5C 320.985,336.767 320.651,324.1 320.5,311.5C 320.479,279.699 331.479,252.533 353.5,230C 375.305,212.832 399.638,208.165 426.5,216C 445.096,222.464 462.096,231.797 477.5,244C 504.474,267.645 533.14,288.978 563.5,308C 566.602,310.036 569.935,311.036 573.5,311C 576.883,307.326 579.716,303.492 582,299.5C 558.275,281.447 538.442,259.947 522.5,235C 539.557,202.606 548.724,168.106 550,131.5C 603.053,204.768 619.72,285.768 600,374.5C 584.502,434.52 554.835,486.186 511,529.5C 504.032,498.094 493.198,468.094 478.5,439.5C 513.379,418.47 543.879,392.137 570,360.5C 570.483,359.552 570.649,358.552 570.5,357.5C 551.798,351.149 534.132,342.649 517.5,332C 493.798,313.144 470.464,293.81 447.5,274C 431.985,261.607 414.319,256.273 394.5,258C 375.288,263.035 362.121,274.869 355,293.5C 351.898,301.908 350.064,310.575 349.5,319.5C 348.835,322.482 348.502,325.648 348.5,329C 348.515,332.576 349.182,335.742 350.5,338.5C 373.544,349.947 394.044,364.947 412,383.5C 420.394,392.955 425.56,403.955 427.5,416.5C 427.662,418.527 427.495,420.527 427,422.5C 407.415,437.374 385.582,447.541 361.5,453C 307.088,466.198 255.088,459.865 205.5,434C 199.99,430.412 194.657,426.578 189.5,422.5C 188.614,421.675 188.281,420.675 188.5,419.5C 190.482,405.871 195.982,393.871 205,383.5C 223.023,363.919 244.19,348.919 268.5,338.5C 270.16,315.799 264.66,295.133 252,276.5C 234.653,257.058 213.819,252.225 189.5,262C 177.684,268.157 166.684,275.49 156.5,284C 137.668,302.174 117.668,318.84 96.5,334C 80.2948,342.935 63.6281,351.102 46.5,358.5C 64.0188,380.852 84.0188,400.685 106.5,418C 117.379,425.266 128.046,432.766 138.5,440.5C 123.241,468.526 112.408,498.193 106,529.5C 21.302,443.396 -7.03135,341.396 21,223.5C 31.135,190.089 46.4683,159.422 67,131.5C 68.594,168.045 77.7607,202.545 94.5,235C 78.893,259.613 59.393,280.78 36,298.5C 37.2774,303.193 39.7774,307.36 43.5,311C 49.3975,309.562 55.0642,307.228 60.5,304C 85.9664,287.204 110.3,268.871 133.5,249C 142.833,242.333 152.167,235.667 161.5,229C 183.872,213.989 208.206,209.322 234.5,215C 259.651,222.815 277.151,238.982 287,263.5C 292.663,277.981 295.829,292.981 296.5,308.5 Z"/></g>
<g><path style="opacity:1" fill="#f7f7f7" d="M 206.5,285.5 C 221.906,285.393 227.739,292.727 224,307.5C 222.833,310 221,311.833 218.5,313C 203.585,316.756 196.419,310.922 197,295.5C 199.022,290.98 202.189,287.647 206.5,285.5 Z"/></g>
<g><path style="opacity:1" fill="#f8f8f8" d="M 400.5,285.5 C 416.794,285.61 422.294,293.276 417,308.5C 412.422,314.055 406.588,315.888 399.5,314C 390.643,308.429 388.476,300.929 393,291.5C 395.114,288.879 397.614,286.879 400.5,285.5 Z"/></g>
<g><path style="opacity:1" fill="#f2f3f4" d="M 419.5,317.5 C 428.823,317.467 431.657,321.801 428,330.5C 421.103,334.976 416.603,333.142 414.5,325C 414.831,321.52 416.498,319.02 419.5,317.5 Z"/></g>
<g><path style="opacity:1" fill="#c4c5c4" d="M 296.5,308.5 C 297.328,314.319 297.828,320.319 298,326.5C 305.135,323.919 312.301,323.919 319.5,326.5C 319.179,321.305 319.513,316.305 320.5,311.5C 320.651,324.1 320.985,336.767 321.5,349.5C 313.238,347.471 304.905,347.138 296.5,348.5C 296.5,335.167 296.5,321.833 296.5,308.5 Z"/></g>
<g><path style="opacity:1" fill="#4f504f" d="M 349.5,319.5 C 349.209,325.923 349.542,332.256 350.5,338.5C 349.182,335.742 348.515,332.576 348.5,329C 348.502,325.648 348.835,322.482 349.5,319.5 Z"/></g>
<g><path style="opacity:1" fill="#050605" d="M 321.5,349.5 C 334.594,355.262 341.927,365.262 343.5,379.5C 342.402,396.384 333.735,407.051 317.5,411.5C 317.123,418.257 317.623,424.924 319,431.5C 324.847,439.176 332.013,440.509 340.5,435.5C 343.623,431.422 346.623,427.255 349.5,423C 355.895,421.548 359.895,424.048 361.5,430.5C 360.474,434.884 358.641,438.884 356,442.5C 341.371,458.995 325.371,460.661 308,447.5C 285.922,462.703 268.589,458.37 256,434.5C 254.785,424.374 258.951,420.874 268.5,424C 270.458,426.748 272.291,429.582 274,432.5C 275.938,435.106 278.438,436.939 281.5,438C 289.667,439.833 295.501,436.999 299,429.5C 299.499,423.843 299.666,418.176 299.5,412.5C 291.124,410.219 284.291,405.552 279,398.5C 268.444,375.998 274.277,359.332 296.5,348.5C 304.905,347.138 313.238,347.471 321.5,349.5 Z"/></g>
<g><path style="opacity:1" fill="#f5f5f5" d="M 299.5,361.5 C 306.257,361.123 312.924,361.623 319.5,363C 323.861,365.226 325.361,368.726 324,373.5C 322.53,375.152 320.697,376.152 318.5,376.5C 315.338,375.068 312.005,374.401 308.5,374.5C 304.111,375.051 299.777,375.551 295.5,376C 290.636,369.298 291.969,364.465 299.5,361.5 Z"/></g>
<g><path style="opacity:1" fill="#c5c5c5" d="M 427.5,416.5 C 429.162,430.525 428.162,444.525 424.5,458.5C 368.984,487.398 310.65,494.898 249.5,481C 229.384,476.273 210.384,468.773 192.5,458.5C 188.839,445.557 187.506,432.557 188.5,419.5C 188.281,420.675 188.614,421.675 189.5,422.5C 194.657,426.578 199.99,430.412 205.5,434C 255.088,459.865 307.088,466.198 361.5,453C 385.582,447.541 407.415,437.374 427,422.5C 427.495,420.527 427.662,418.527 427.5,416.5 Z"/></g>
</svg>
